<?xml version="1.0" encoding="utf-8"?>
<!-- Generator: Adobe Illustrator 22.1.0, SVG Export Plug-In . SVG Version: 6.00 Build 0)  -->
<svg version="1.1" id="Vrstva_1" xmlns="http://www.w3.org/2000/svg" xmlns:xlink="http://www.w3.org/1999/xlink" x="0px" y="0px"
	 viewBox="0 0 29.8 37.9" width="25" height="32" style="enable-background:new 0 0 29.8 37.9;" xml:space="preserve">
<style type="text/css">
	.st1{fill:#f35430;}
	.st2{fill:#FFFFFF;}
	.st3{fill:#b43d22;}
</style>
<g>
	<g>
        <path class="st1" d="M14.9,36.4c-1,0-1.9-0.5-2.4-1.2L5,24.5c-0.1-0.2-1.5-2.1-1.9-2.7C2,19.8,1.3,17.4,1.3,15
            c0-7.5,6.1-13.6,13.6-13.6l0.2,0c7.3,0.1,13.3,6.1,13.4,13.4c0,2.5-0.6,5-1.9,7.2c-0.3,0.6-1.5,2.2-1.7,2.4l-7.5,10.8
            C16.8,36,15.9,36.4,14.9,36.4L14.9,36.4z"/>
        <path class="st2" d="M14.9,2.4c0.1,0,0.1,0,0.2,0C21.8,2.5,27.4,8,27.5,14.8c0,2.4-0.6,4.7-1.8,6.6c-0.3,0.5-1.6,2.3-1.6,2.3
            l-7.5,10.8c-0.4,0.6-1,0.8-1.6,0.8c-0.6,0-1.2-0.3-1.6-0.8L5.8,23.9c0,0-1.5-2-1.8-2.6c-1.1-1.9-1.7-4-1.7-6.3
            C2.3,8.1,8,2.4,14.9,2.4 M14.9,0.4C6.9,0.4,0.3,7,0.3,15c0,2.6,0.7,5.1,2,7.3C2.7,23,4,24.8,4.2,25.1l7.4,10.6
            c0.8,1.1,2,1.7,3.3,1.7c1.3,0,2.5-0.6,3.3-1.7l7.6-10.8c0.2-0.3,1.3-1.8,1.7-2.4c1.4-2.3,2.1-5,2.1-7.7C29.4,7,22.9,0.5,15.1,0.4
            L14.9,0.4L14.9,0.4z"/>
	</g>
	<circle class="st3" cx="14.9" cy="15" r="6.9"/>
</g>
</svg>
